<?xml version="1.0" encoding="UTF-8" standalone="no"?>
<!-- Created with Inkscape (http://www.inkscape.org/) -->

<svg
   xmlns:dc="http://purl.org/dc/elements/1.1/"
   xmlns:cc="http://creativecommons.org/ns#"
   xmlns:rdf="http://www.w3.org/1999/02/22-rdf-syntax-ns#"
   xmlns:svg="http://www.w3.org/2000/svg"
   xmlns="http://www.w3.org/2000/svg"
   xmlns:sodipodi="http://sodipodi.sourceforge.net/DTD/sodipodi-0.dtd"
   xmlns:inkscape="http://www.inkscape.org/namespaces/inkscape"
   width="250mm"
   height="250mm"
   viewBox="0 0 250 250"
   version="1.1"
   id="svg8"
   inkscape:version="0.92.3 (2405546, 2018-03-11)"
   sodipodi:docname="icon.svg">
  <defs
     id="defs2" />
  <sodipodi:namedview
     id="base"
     pagecolor="#ffffff"
     bordercolor="#666666"
     borderopacity="1.0"
     inkscape:pageopacity="0.0"
     inkscape:pageshadow="2"
     inkscape:zoom="0.62300527"
     inkscape:cx="-246.84828"
     inkscape:cy="161.21392"
     inkscape:document-units="mm"
     inkscape:current-layer="layer1"
     showgrid="false"
     inkscape:window-width="2493"
     inkscape:window-height="1545"
     inkscape:window-x="67"
     inkscape:window-y="27"
     inkscape:window-maximized="1" />
  <metadata
     id="metadata5">
    <rdf:RDF>
      <cc:Work
         rdf:about="">
        <dc:format>image/svg+xml</dc:format>
        <dc:type
           rdf:resource="http://purl.org/dc/dcmitype/StillImage" />
        <dc:title></dc:title>
      </cc:Work>
    </rdf:RDF>
  </metadata>
  <g
     inkscape:label="Layer 1"
     inkscape:groupmode="layer"
     id="layer1"
     transform="translate(0,-47)">
    <rect
       style="opacity:1;fill:#875a7b;fill-opacity:1;stroke:none;stroke-width:5;stroke-linecap:round;stroke-linejoin:round;stroke-miterlimit:4;stroke-dasharray:none;stroke-opacity:1"
       id="rect877"
       width="250.99106"
       height="250.99106"
       x="0"
       y="47.283012" />
    <path
       id="path817-7"
       style="fill:none;fill-opacity:1;stroke:#ffffff;stroke-width:5;stroke-linecap:round;stroke-linejoin:miter;stroke-miterlimit:4;stroke-dasharray:none;stroke-opacity:1"
       d="m 143.34249,116.86573 51.02824,-51.028416 m -77.3652,77.365326 10.83836,-10.83835 m 17.74982,38.81875 a 20.000031,20 0 0 1 -19.31854,5.17638 20.000031,20 0 0 1 -14.14216,-14.14213 20.000031,20 0 0 1 5.17638,-19.31852 m 28.28432,28.28428 77.11921,-77.119333 M 194.3965,65.811544 a 20.000031,20 0 0 1 19.31855,-5.176387 20.000031,20 0 0 1 14.14217,14.14214 20.000031,20 0 0 1 -5.1764,19.31852"
       inkscape:connector-curvature="0" />
    <path
       id="path817-7-5"
       style="fill:none;fill-opacity:1;stroke:#ffffff;stroke-width:5;stroke-linecap:round;stroke-linejoin:miter;stroke-miterlimit:4;stroke-dasharray:none;stroke-opacity:1"
       d="m 110.69651,177.58852 -51.028243,51.02816 m 77.365193,-77.36507 -10.83835,10.83835 m -17.74982,-38.81875 a 20.000031,20 0 0 1 19.31854,-5.17638 20.000031,20 0 0 1 14.14216,14.14213 20.000031,20 0 0 1 -5.17639,19.31852 M 108.44529,123.2712 31.326082,200.39028 m 28.316412,28.25217 a 20.000031,20 0 0 1 -19.318548,5.17639 20.000031,20 0 0 1 -14.142163,-14.14214 20.000031,20 0 0 1 5.176399,-19.31852"
       inkscape:connector-curvature="0" />
    <text
       xml:space="preserve"
       style="font-style:normal;font-weight:normal;font-size:10.58333302px;line-height:1.25;font-family:sans-serif;letter-spacing:0px;word-spacing:0px;fill:#ffffff;fill-opacity:1;stroke:none;stroke-width:0.26458332"
       x="127.40662"
       y="287"
       id="text875"><tspan
         sodipodi:role="line"
         id="tspan873"
         x="127.40662"
         y="287"
         style="font-style:normal;font-variant:normal;font-weight:normal;font-stretch:normal;font-size:70.55555725px;font-family:'Courier 10 Pitch';-inkscape-font-specification:'Courier 10 Pitch, Normal';font-variant-ligatures:normal;font-variant-caps:normal;font-variant-numeric:normal;font-feature-settings:normal;text-align:center;writing-mode:lr-tb;text-anchor:middle;fill:#ffffff;stroke-width:0.26458332">X-REF</tspan></text>
  </g>
</svg>
